<svg id="Capa_1" enable-background="new 0 0 512 512" height="512" viewBox="0 0 512 512" width="512" xmlns="http://www.w3.org/2000/svg"><g><path d="m316 414.244v-108.534c2.347.833 4.871 1.29 7.5 1.29 12.406 0 22.5-10.094 22.5-22.5v-127c0-20.678-16.822-37.5-37.5-37.5h-105c-20.678 0-37.5 16.822-37.5 37.5v127c0 12.406 10.093 22.5 22.5 22.5 2.629 0 5.153-.458 7.5-1.29v147.04c0 14.475 11.776 26.25 26.25 26.25s26.25-11.775 26.25-26.25v-30.635c4.993-.146 10.008-.146 15 0v30.635c0 14.475 11.775 26.25 26.25 26.25s26.25-11.775 26.25-26.25v-22.941c24.869 7.235 41 18.702 41 29.691 0 17.737-41.479 37.5-101 37.5s-101-19.763-101-37.5c0-7.571 7.936-15.764 21.773-22.477 3.727-1.809 5.282-6.295 3.474-10.021-1.808-3.728-6.293-5.281-10.021-3.475-24.982 12.12-30.226 26.252-30.226 35.973 0 15.25 12.929 29.011 36.406 38.747 21.383 8.869 49.65 13.753 79.594 13.753s58.212-4.884 79.595-13.753c23.476-9.736 36.405-23.497 36.405-38.747 0-19.302-20.812-35.998-56-45.256zm-52.5-7.136c-4.994-.138-10.007-.138-15 0v-115.108h15zm45-257.108c-4.143 0-7.5 3.357-7.5 7.5v295.25c0 6.203-5.047 11.25-11.25 11.25s-11.25-5.047-11.25-11.25v-168.25c0-4.143-3.357-7.5-7.5-7.5h-30c-4.142 0-7.5 3.357-7.5 7.5v168.25c0 6.203-5.047 11.25-11.25 11.25s-11.25-5.047-11.25-11.25v-295.25c0-4.143-3.358-7.5-7.5-7.5s-7.5 3.357-7.5 7.5v127c0 4.136-3.364 7.5-7.5 7.5s-7.5-3.364-7.5-7.5v-127c0-12.406 10.093-22.5 22.5-22.5h105c12.406 0 22.5 10.094 22.5 22.5v127c0 4.136-3.364 7.5-7.5 7.5s-7.5-3.364-7.5-7.5v-127c0-4.143-3.357-7.5-7.5-7.5z"/><path d="m255.671 105c28.948 0 52.5-23.552 52.5-52.5s-23.552-52.5-52.5-52.5c-28.949 0-52.5 23.552-52.5 52.5s23.551 52.5 52.5 52.5zm0-90c20.678 0 37.5 16.822 37.5 37.5s-16.822 37.5-37.5 37.5-37.5-16.822-37.5-37.5 16.822-37.5 37.5-37.5z"/></g></svg>