<svg id="Capa_1" enable-background="new 0 0 510 510" height="512" viewBox="0 0 510 510" width="512" xmlns="http://www.w3.org/2000/svg"><g id="XMLID_1478_"><path id="XMLID_1658_" d="m357.31 0h-357.31v120h282.31zm-267.31 75h-30v-30h30zm60 0h-30v-30h30zm60 0h-30v-30h30z"/><path id="XMLID_1668_" d="m392.69 0-75 120h192.31v-120z"/><path id="XMLID_1669_" d="m90 405h75v30h-75z"/><path id="XMLID_1671_" d="m90 225h210v30h-210z"/><path id="XMLID_1765_" d="m0 510h510v-360h-510zm450-45h-225v-30h225zm0-60h-225v-30h225zm-90-210h90v30h-90zm0 60h90v30h-90zm-300-60h270v90h-270zm0 120h390v30h-390zm0 60h135v90h-135z"/></g></svg>