<?xml version="1.0"?>
<svg xmlns="http://www.w3.org/2000/svg" id="Layer_3" data-name="Layer 3" width="512" height="512" viewBox="0 0 32 32"><path d="M7.793,11.793a1,1,0,0,1,1.414,0L17.9,20.486l4.193-4.193a1.029,1.029,0,0,1,1.414,0L30,22.786V7.177A5.182,5.182,0,0,0,24.823,2H7.177A5.182,5.182,0,0,0,2,7.177V17.586ZM22.5,6A3.5,3.5,0,1,1,19,9.5,3.5,3.5,0,0,1,22.5,6Z"/><path d="M22.8,18.414,19.314,21.9l7.633,7.633a5.17,5.17,0,0,0,2.98-3.991Z"/><path d="M8.5,13.914,2,20.414v4.409A5.182,5.182,0,0,0,7.177,30H24.586Z"/></svg>
